<svg width="33" height="33" viewBox="0 0 33 33" fill="none" xmlns="http://www.w3.org/2000/svg">
<path d="M29.3246 0H4.12379C2.22657 0 0.687317 1.53925 0.687317 3.43647V28.6373C0.687317 30.5345 2.22657 32.0737 4.12379 32.0737H29.3246C31.2218 32.0737 32.7611 30.5345 32.7611 28.6373V3.43647C32.7611 1.53925 31.2218 0 29.3246 0ZM20.5401 27.4703C19.9387 27.5777 19.7168 27.2054 19.7168 26.8976C19.7168 26.511 19.7311 24.535 19.7311 22.9385C19.7311 21.8216 19.3588 21.1128 18.9221 20.7405C21.571 20.447 24.3632 20.0819 24.3632 15.5071C24.3632 14.2041 23.8978 13.5526 23.1389 12.7149C23.2606 12.4071 23.6687 11.1399 23.0172 9.49326C22.0221 9.18541 19.7454 10.7748 19.7454 10.7748C18.8004 10.5099 17.7766 10.3739 16.7671 10.3739C15.7577 10.3739 14.7339 10.5099 13.7889 10.7748C13.7889 10.7748 11.5122 9.18541 10.5171 9.49326C9.86556 11.1327 10.2665 12.3999 10.3954 12.7149C9.63647 13.5526 9.2785 14.2041 9.2785 15.5071C9.2785 20.0604 11.9489 20.447 14.5979 20.7405C14.2542 21.0484 13.9464 21.5782 13.839 22.3371C13.1588 22.6449 11.4191 23.1747 10.381 21.3419C9.72954 20.2108 8.55541 20.1177 8.55541 20.1177C7.3956 20.1034 8.47666 20.8479 8.47666 20.8479C9.24986 21.2059 9.79397 22.5805 9.79397 22.5805C10.4884 24.7068 13.8103 23.9909 13.8103 23.9909C13.8103 24.986 13.8247 26.604 13.8247 26.8976C13.8247 27.2054 13.6099 27.5777 13.0013 27.4703C8.27619 25.8881 4.96859 21.392 4.96859 16.1371C4.96859 9.56485 9.99443 4.5748 16.5667 4.5748C23.1389 4.5748 28.4655 9.56485 28.4655 16.1371C28.4726 21.392 25.2653 25.8953 20.5401 27.4703ZM13.5168 23.096C13.3808 23.1246 13.2519 23.0673 13.2376 22.9743C13.2233 22.8669 13.3164 22.7738 13.4524 22.7452C13.5884 22.7308 13.7173 22.7881 13.7316 22.8812C13.7531 22.9743 13.66 23.0673 13.5168 23.096ZM12.8367 23.0315C12.8367 23.1246 12.7293 23.2034 12.5861 23.2034C12.4286 23.2177 12.3212 23.1389 12.3212 23.0315C12.3212 22.9385 12.4286 22.8597 12.5718 22.8597C12.7078 22.8454 12.8367 22.9241 12.8367 23.0315ZM11.8559 22.9528C11.8272 23.0458 11.684 23.0888 11.5623 23.0458C11.4263 23.0172 11.3332 22.9098 11.3619 22.8167C11.3905 22.7237 11.5337 22.6807 11.6554 22.7094C11.7986 22.7523 11.8916 22.8597 11.8559 22.9528ZM10.9753 22.5662C10.9108 22.6449 10.7748 22.6306 10.6674 22.5232C10.56 22.4301 10.5314 22.2941 10.603 22.2297C10.6674 22.1509 10.8034 22.1652 10.9108 22.2726C11.0039 22.3657 11.0397 22.5089 10.9753 22.5662ZM10.3238 21.9147C10.2593 21.9576 10.1376 21.9147 10.0589 21.8073C9.98011 21.6999 9.98011 21.5782 10.0589 21.5281C10.1376 21.4636 10.2593 21.5138 10.3238 21.6211C10.4025 21.7285 10.4025 21.8574 10.3238 21.9147ZM9.8584 21.2202C9.79397 21.2847 9.68658 21.2489 9.60783 21.1773C9.52907 21.0842 9.51476 20.9768 9.57919 20.9267C9.64362 20.8623 9.75101 20.898 9.82977 20.9696C9.90852 21.0627 9.92284 21.1701 9.8584 21.2202ZM9.37873 20.6904C9.35009 20.7549 9.25702 20.7692 9.17827 20.7191C9.0852 20.6761 9.04224 20.5974 9.07088 20.5329C9.09952 20.49 9.17827 20.4685 9.27134 20.5043C9.36441 20.5544 9.40737 20.6332 9.37873 20.6904Z" fill="white"/>
</svg>
